<?xml version="1.0" encoding="UTF-8" standalone="no"?>
<svg
   xmlns:dc="http://purl.org/dc/elements/1.1/"
   xmlns:cc="http://creativecommons.org/ns#"
   xmlns:rdf="http://www.w3.org/1999/02/22-rdf-syntax-ns#"
   xmlns:svg="http://www.w3.org/2000/svg"
   xmlns="http://www.w3.org/2000/svg"
   id="svg8"
   version="1.1"
   viewBox="0 0 33.866666 33.866668"
   height="128"
   width="128">
  <defs
     id="defs2" />
  <metadata
     id="metadata5">
    <rdf:RDF>
      <cc:Work
         rdf:about="">
        <dc:format>image/svg+xml</dc:format>
        <dc:type
           rdf:resource="http://purl.org/dc/dcmitype/StillImage" />
        <dc:title></dc:title>
      </cc:Work>
    </rdf:RDF>
  </metadata>
  <g
     style="display:inline"
     transform="translate(0,-263.13332)"
     id="layer1">
    <path
       id="path10"
       transform="matrix(0.26458333,0,0,0.26458333,0,263.13332)"
       d="M 64,0 A 31.999998,31.999998 0 0 0 32,32 31.999998,31.999998 0 0 0 64,64 31.999998,31.999998 0 0 1 96,96 31.999998,31.999998 0 0 1 66.734375,127.86328 63.999995,63.999995 0 0 0 128,64 63.999995,63.999995 0 0 0 64,0 Z"
       style="fill:#000000;fill-opacity:1;stroke:none;stroke-width:1.2406857" />
    <path
       style="fill:#ffffff;fill-opacity:1;stroke:none;stroke-width:0.04315909"
       d="m 16.27524,270.75613 a 1.1131674,1.1131674 0 0 0 -0.212309,1.55987 1.1131674,1.1131674 0 0 0 1.55987,0.21231 1.1131674,1.1131674 0 0 1 1.559876,0.21231 1.1131674,1.1131674 0 0 1 -0.139475,1.49851 2.2263348,2.2263348 0 0 0 0.351784,-3.05839 2.2263348,2.2263348 0 0 0 -3.119746,-0.42461 z"
       id="path827" />
    <path
       id="path829"
       d="m 17.808098,290.1395 a 1.1131674,1.1131674 0 0 0 0.187339,-1.56307 1.1131674,1.1131674 0 0 0 -1.563066,-0.18733 1.1131674,1.1131674 0 0 1 -1.563071,-0.18735 1.1131674,1.1131674 0 0 1 0.115495,-1.50055 2.2263348,2.2263348 0 0 0 -0.302834,3.06362 2.2263348,2.2263348 0 0 0 3.126137,0.37468 z"
       style="fill:#000000;fill-opacity:1;stroke:none;stroke-width:0.04315909;stroke-opacity:1" />
  </g>
</svg>
