<?xml version="1.0" encoding="UTF-8" standalone="no"?>
<!-- Created with Inkscape (http://www.inkscape.org/) -->

<svg
   xmlns:dc="http://purl.org/dc/elements/1.1/"
   xmlns:cc="http://creativecommons.org/ns#"
   xmlns:rdf="http://www.w3.org/1999/02/22-rdf-syntax-ns#"
   xmlns:svg="http://www.w3.org/2000/svg"
   xmlns="http://www.w3.org/2000/svg"
   xmlns:sodipodi="http://sodipodi.sourceforge.net/DTD/sodipodi-0.dtd"
   xmlns:inkscape="http://www.inkscape.org/namespaces/inkscape"
   width="128"
   height="128"
   viewBox="0 0 33.866666 33.866668"
   version="1.1"
   id="svg837"
   inkscape:version="0.92.4 (5da689c313, 2019-01-14)"
   sodipodi:docname="Oculus_Site.svg">
  <defs
     id="defs831" />
  <sodipodi:namedview
     id="base"
     pagecolor="#ffffff"
     bordercolor="#666666"
     borderopacity="1.0"
     inkscape:pageopacity="0.0"
     inkscape:pageshadow="2"
     inkscape:zoom="3.6839344"
     inkscape:cx="42.721692"
     inkscape:cy="63.5467"
     inkscape:document-units="mm"
     inkscape:current-layer="layer1"
     showgrid="false"
     units="px"
     inkscape:window-width="1440"
     inkscape:window-height="837"
     inkscape:window-x="-8"
     inkscape:window-y="-8"
     inkscape:window-maximized="1" />
  <metadata
     id="metadata834">
    <rdf:RDF>
      <cc:Work
         rdf:about="">
        <dc:format>image/svg+xml</dc:format>
        <dc:type
           rdf:resource="http://purl.org/dc/dcmitype/StillImage" />
        <dc:title />
      </cc:Work>
    </rdf:RDF>
  </metadata>
  <g
     inkscape:label="圖層 1"
     inkscape:groupmode="layer"
     id="layer1"
     transform="translate(0,-263.13332)"
     style="display:inline">
    <path
       style="display:none;fill:none;fill-opacity:1;stroke:#000000;stroke-width:1.32291663;stroke-miterlimit:4;stroke-dasharray:none;stroke-opacity:1"
       d="m 31.538332,280.06665 a 14.605,14.605 0 0 1 -14.605,14.605 14.605,14.605 0 0 1 -14.6049991,-14.605 14.605,14.605 0 0 1 14.6049991,-14.605 14.605,14.605 0 0 1 14.605,14.605 z"
       id="path839"
       inkscape:connector-curvature="0" />
    <path
       inkscape:connector-curvature="0"
       id="path1385"
       d="m 0.93833047,279.33315 1.71836823,-0.004 c 0,-7.32348 5.9368529,-13.26034 13.2603323,-13.26034 l -0.0035,-1.87699"
       style="fill:none;fill-opacity:1;stroke:#000000;stroke-width:1.20111704;stroke-miterlimit:4;stroke-dasharray:none;stroke-opacity:1"
       sodipodi:nodetypes="cccc" />
    <path
       sodipodi:nodetypes="cccc"
       style="fill:none;fill-opacity:1;stroke:#000000;stroke-width:1.20111704;stroke-miterlimit:4;stroke-dasharray:none;stroke-opacity:1"
       d="m 17.625362,264.34997 0.004,1.71837 c 7.32348,0 13.26034,5.93686 13.26034,13.26034 l 1.87699,-0.004"
       id="path1387"
       inkscape:connector-curvature="0" />
    <path
       sodipodi:nodetypes="cccc"
       style="fill:none;fill-opacity:1;stroke:#000000;stroke-width:1.20111704;stroke-miterlimit:4;stroke-dasharray:none;stroke-opacity:1"
       d="m 32.622933,281.38188 -1.718368,0.004 c 0,7.32348 -5.936853,13.26034 -13.260333,13.26034 l 0.0035,1.87699"
       id="path1389"
       inkscape:connector-curvature="0" />
    <path
       inkscape:connector-curvature="0"
       id="path1391"
       d="m 15.935901,296.36506 -0.004,-1.71837 c -7.3234804,0 -13.2603404,-5.93686 -13.2603404,-13.26034 l -1.87698998,0.004"
       style="fill:none;fill-opacity:1;stroke:#000000;stroke-width:1.20111704;stroke-miterlimit:4;stroke-dasharray:none;stroke-opacity:1"
       sodipodi:nodetypes="cccc" />
    <path
       style="fill:none;stroke:#000000;stroke-width:1.32291663;stroke-linecap:butt;stroke-linejoin:miter;stroke-miterlimit:4;stroke-dasharray:none;stroke-opacity:1"
       d="m 4.6683556,280.33755 c 8.0189874,-7.76969 15.9452354,-7.93479 23.7727044,0"
       id="path1414"
       inkscape:connector-curvature="0"
       sodipodi:nodetypes="cc" />
    <path
       sodipodi:nodetypes="cc"
       inkscape:connector-curvature="0"
       id="path1416"
       d="m 28.44106,280.33755 c -8.018987,7.76969 -15.945235,7.93479 -23.7727044,0"
       style="fill:none;stroke:#000000;stroke-width:1.32291663;stroke-linecap:butt;stroke-linejoin:miter;stroke-miterlimit:4;stroke-dasharray:none;stroke-opacity:1" />
    <path
       style="fill:none;fill-opacity:1;stroke:#000000;stroke-width:1.05833328;stroke-miterlimit:4;stroke-dasharray:none;stroke-opacity:1"
       d="m 20.971692,280.30164 a 4.2733412,4.2733412 0 0 1 -4.273341,4.27334 4.2733412,4.2733412 0 0 1 -4.273341,-4.27334 4.2733412,4.2733412 0 0 1 4.273341,-4.27335 4.2733412,4.2733412 0 0 1 4.273341,4.27335 z"
       id="path1439"
       inkscape:connector-curvature="0" />
  </g>
</svg>
